<!-- created by svgstack.com | Attribution is required. --><svg width="486" height="172" viewBox="0 0 486 172" fill="none" xmlns="http://www.w3.org/2000/svg"><path d="M53.4375 101.13L70.92 91.32L71.2125 90.465L70.92 89.9925H70.065L67.14 89.8125L57.15 89.5425L48.4875 89.1825L40.095 88.7325L37.98 88.2825L36 85.6725L36.2025 84.3675L37.98 83.175L40.5225 83.4L46.1475 83.7825L54.585 84.3675L60.705 84.7275L69.7725 85.6725H71.2125L71.415 85.0875L70.92 84.7275L70.5375 84.3675L61.8075 78.45L52.3575 72.195L47.4075 68.595L44.73 66.7725L43.38 65.0625L42.795 61.3275L45.225 58.65L48.4875 58.875L49.32 59.1L52.6275 61.6425L59.6925 67.11L68.9175 73.905L70.2675 75.03L70.8075 74.6475L70.875 74.3775L70.2675 73.365L65.25 64.2975L59.895 55.0725L57.51 51.2475L56.88 48.9525C56.655 48.0075 56.4975 47.22 56.4975 46.2525L59.265 42.495L60.795 42L64.485 42.495L66.0375 43.845L68.3325 49.0875L72.045 57.345L77.805 68.5725L79.4925 71.9025L80.3925 74.985L80.73 75.93H81.315V75.39L81.7875 69.0675L82.665 61.305L83.52 51.315L83.8125 48.5025L85.2075 45.1275L87.975 43.305L90.135 44.34L91.9125 46.8825L91.665 48.525L90.6075 55.3875L88.5375 66.1425L87.1875 73.3425H87.975L88.875 72.4425L92.52 67.605L98.64 59.955L101.34 56.9175L104.49 53.565L106.515 51.9675H110.34L113.153 56.1525L111.892 60.4725L107.955 65.4675L104.693 69.6975L100.013 75.9975L97.0875 81.0375L97.3575 81.4425L98.055 81.375L108.63 79.125L114.345 78.09L121.162 76.92L124.245 78.36L124.582 79.8225L123.368 82.815L116.078 84.615L107.528 86.325L94.7925 89.34L94.635 89.4525L94.815 89.6775L100.553 90.2175L103.005 90.3525H109.013L120.195 91.185L123.12 93.12L124.875 95.4825L124.582 97.2825L120.082 99.5775L114.007 98.1375L99.8325 94.7625L94.9725 93.5475H94.2975V93.9525L98.3475 97.9125L105.773 104.617L115.065 113.258L115.537 115.395L114.345 117.082L113.085 116.902L104.917 110.76L101.767 107.992L94.635 101.985H94.1625V102.615L95.805 105.023L104.49 118.072L104.94 122.078L104.31 123.382L102.06 124.17L99.585 123.72L94.5 116.587L89.2575 108.555L85.0275 101.355L84.51 101.648L82.0125 128.535L80.8425 129.907L78.1425 130.942L75.8925 129.232L74.7 126.465L75.8925 120.997L77.3325 113.865L78.5025 108.195L79.56 101.153L80.19 98.8125L80.145 98.655L79.6275 98.7225L74.3175 106.013L66.24 116.925L59.85 123.765L58.32 124.372L55.665 123L55.9125 120.547L57.3975 118.365L66.24 107.115L71.5725 100.14L75.015 96.1125L74.9925 95.5275H74.79L51.3 110.782L47.115 111.322L45.315 109.635L45.54 106.867L46.395 105.968L53.46 101.108L53.4375 101.13Z" fill="#D97757"/><path d="M181.08 117.488C169.785 117.488 162.068 111.188 158.423 101.49C156.519 96.4371 155.58 91.0719 155.655 85.6727C155.655 69.4052 162.945 58.1102 179.055 58.1102C189.878 58.1102 196.56 62.8352 200.363 74.1077H204.998L204.368 58.5602C197.888 54.3752 189.788 52.2602 179.933 52.2602C166.05 52.2602 154.238 58.4702 147.668 69.6752C144.274 75.592 142.548 82.318 142.673 89.1377C142.673 101.58 148.545 112.605 159.57 118.725C165.604 121.949 172.374 123.547 179.213 123.36C189.968 123.36 198.495 121.313 206.055 117.735L208.013 100.59H203.288C200.453 108.42 197.078 113.123 191.475 115.62C188.73 116.858 185.265 117.488 181.08 117.488ZM229.793 58.1102L230.243 50.4602H227.048L212.828 54.7352V57.0527L219.128 59.9777V113.483C219.128 117.128 217.26 117.938 212.378 118.545V122.46H236.565V118.545C231.66 117.938 229.815 117.128 229.815 113.483V58.1327L229.793 58.1102ZM325.98 123.36H327.848L344.205 120.255V116.25L341.91 116.07C338.085 115.71 337.095 114.923 337.095 111.795V83.2652L337.545 74.1077H334.958L319.5 76.3352V80.2502L321.008 80.5202C325.193 81.1277 326.43 82.2977 326.43 85.2227V110.648C322.425 113.753 318.6 115.71 314.055 115.71C309.015 115.71 305.888 113.145 305.888 107.16V83.2877L306.338 74.1302H303.683L288.203 76.3577V80.2727L289.8 80.5427C293.985 81.1502 295.223 82.3202 295.223 85.2452V108.713C295.223 118.658 300.848 123.383 309.803 123.383C316.643 123.383 322.245 119.738 326.453 114.675L326.003 123.383L325.98 123.36ZM281.025 91.7027C281.025 78.9902 274.275 74.1077 262.08 74.1077C251.325 74.1077 243.518 78.5627 243.518 85.9427C243.518 88.1477 244.305 89.8352 245.903 91.0052L254.093 89.9252C253.733 87.4502 253.553 85.9427 253.553 85.3127C253.553 81.1277 255.78 79.0127 260.303 79.0127C266.985 79.0127 270.36 83.7152 270.36 91.2752V93.7502L253.485 98.8127C247.86 100.343 244.665 101.67 242.528 104.775C241.395 106.675 240.847 108.866 240.953 111.075C240.953 118.275 245.903 123.36 254.363 123.36C260.483 123.36 265.905 120.593 270.63 115.35C272.318 120.593 274.905 123.36 279.518 123.36C283.253 123.36 286.628 121.853 289.643 118.905L288.743 115.8C287.438 116.16 286.178 116.34 284.85 116.34C282.263 116.34 281.025 114.293 281.025 110.288V91.7027ZM259.425 116.16C254.813 116.16 251.955 113.483 251.955 108.78C251.955 105.585 253.463 103.718 256.68 102.638L270.36 98.2952V111.435C265.995 114.743 263.43 116.16 259.425 116.16ZM401.85 120.255V116.25L399.533 116.07C395.708 115.71 394.74 114.923 394.74 111.795V58.1102L395.19 50.4602H391.973L377.753 54.7352V57.0527L384.053 59.9777V77.5727C380.506 75.1405 376.266 73.9247 371.97 74.1077C357.84 74.1077 346.815 84.8627 346.815 100.95C346.815 114.203 354.735 123.36 367.785 123.36C374.535 123.36 380.408 120.075 384.053 114.99L383.603 123.36H385.493L401.85 120.255ZM372.24 79.4402C378.99 79.4402 384.053 83.3552 384.053 90.5552V110.805C382.515 112.338 380.685 113.546 378.671 114.358C376.657 115.17 374.501 115.568 372.33 115.53C362.655 115.53 357.75 107.88 357.75 97.6652C357.75 86.1902 363.353 79.4402 372.24 79.4402ZM436.433 89.5652C435.173 83.6252 431.528 80.2502 426.465 80.2502C418.905 80.2502 413.663 85.9427 413.663 94.1102C413.663 106.193 420.053 114.023 430.38 114.023C433.766 113.989 437.083 113.067 440.001 111.349C442.918 109.632 445.335 107.179 447.008 104.235L450.023 105.045C448.673 115.53 439.178 123.36 427.523 123.36C413.843 123.36 404.415 113.235 404.415 98.8352C404.415 84.3227 414.653 74.1077 428.333 74.1077C438.548 74.1077 445.748 80.2502 448.065 90.9152L412.425 101.85V97.0352L436.433 89.5877V89.5652Z" fill="black"/></svg>