<!-- created by svgstack.com | Attribution is required. --><svg width="245" height="85" viewBox="0 0 245 85" fill="none" xmlns="http://www.w3.org/2000/svg"><path fill-rule="evenodd" clip-rule="evenodd" d="M27.9969 3.86052C28.7619 4.16156 29.4525 4.6574 30.0794 5.31261C31.1241 6.39636 32.006 7.94761 32.6789 9.78573C33.3554 11.6345 33.7946 13.6816 33.961 15.7357C36.1909 14.4742 38.6656 13.7061 41.2179 13.4832L41.3985 13.4691C44.4798 13.2211 47.5256 13.7772 50.1819 15.1478C50.5396 15.3355 50.8902 15.5374 51.2337 15.7499C51.4108 13.7347 51.8429 11.7336 52.5087 9.9274C53.1816 8.08573 54.0635 6.53802 55.1048 5.45073C55.6867 4.82125 56.3985 4.32578 57.1908 3.99865C58.101 3.64448 59.0679 3.58073 60.01 3.8499C61.4302 4.25365 62.6485 5.15323 63.6083 6.46011C64.4866 7.65365 65.1454 9.18365 65.5952 11.0182C66.4098 14.3261 66.5514 18.6789 66.0025 23.9276L66.1902 24.0693L66.2823 24.1366C68.9633 26.1766 70.8298 29.0843 71.8179 32.4595C73.3585 37.7259 72.5829 43.6334 69.9266 46.9378L69.8629 47.0122L69.87 47.0228C71.3469 49.7216 72.2429 52.5726 72.4341 55.5228L72.4412 55.6291C72.6679 59.4009 71.7329 63.1976 69.5583 66.927L69.5335 66.9624L69.5689 67.0474C71.2406 71.1451 71.7648 75.2711 71.1202 79.3936L71.0989 79.5318C70.9991 80.134 70.6645 80.672 70.1685 81.0278C69.6726 81.3837 69.0558 81.5284 68.4533 81.4301C68.155 81.3835 67.8688 81.2785 67.6111 81.1212C67.3535 80.9638 67.1294 80.7571 66.9517 80.513C66.7741 80.2689 66.6463 79.9921 66.5758 79.6985C66.5053 79.405 66.4934 79.1004 66.5408 78.8022C67.1323 75.1436 66.5762 71.4745 64.8408 67.7416C64.6789 67.3948 64.607 67.0128 64.6318 66.6308C64.6565 66.2489 64.7771 65.8793 64.9825 65.5564L64.9966 65.5351C67.1358 62.2626 68.0212 59.0539 67.83 55.9018C67.6671 53.1428 66.6789 50.4334 64.9966 47.8516C64.6695 47.3496 64.5529 46.7391 64.6722 46.1519C64.7915 45.5648 65.137 45.0481 65.6341 44.7136L65.666 44.6924C66.5266 44.1293 67.32 42.6914 67.7202 40.7257C68.1618 38.4014 68.0465 36.0056 67.3837 33.7345C66.6577 31.2553 65.3296 29.187 63.4702 27.7739C61.3629 26.1659 58.5721 25.3903 55.041 25.6134C54.5793 25.6435 54.1192 25.5343 53.7202 25.3001C53.3211 25.0658 53.0015 24.7173 52.8027 24.2995C51.6906 21.9443 50.0685 20.2584 48.0462 19.2136C46.1047 18.2446 43.931 17.8374 41.7704 18.0378C37.361 18.3884 33.4723 20.8747 32.3141 24.0091C32.1503 24.4502 31.8556 24.8308 31.4695 25.0998C31.0834 25.3688 30.6243 25.5134 30.1537 25.5143C26.3748 25.5214 23.4494 26.4068 21.3102 28.0041C19.4614 29.3853 18.2006 31.3155 17.5348 33.6282C16.9323 35.8051 16.8498 38.0932 17.2939 40.3078C17.6906 42.2841 18.4662 43.9203 19.3552 44.8022L19.3835 44.827C20.1344 45.5601 20.2937 46.7041 19.7696 47.6072C18.4946 49.8101 17.5419 53.0932 17.386 56.2489C17.2089 59.8543 18.0448 62.9851 19.9325 65.2305L19.9892 65.2978C20.274 65.6298 20.4573 66.0368 20.5169 66.4702C20.5766 66.9036 20.5102 67.3449 20.3256 67.7416C18.2856 72.1191 17.6587 75.7174 18.3352 78.5507C18.4568 79.1399 18.3437 79.7533 18.0199 80.2603C17.6961 80.7673 17.1872 81.128 16.6016 81.2655C16.0159 81.403 15.3997 81.3066 14.8841 80.9967C14.3685 80.6867 13.9942 80.1879 13.8408 79.6061C12.9802 76.0007 13.5646 71.8711 15.516 67.2174L15.5656 67.0934L15.5373 67.0509C14.5782 65.6343 13.8623 64.0674 13.4194 62.4149L13.4017 62.3476C12.8641 60.2859 12.6526 58.1528 12.7748 56.0257C12.9306 52.8028 13.7594 49.502 14.9777 46.8528L15.0202 46.7607L15.0131 46.7537C13.9754 45.2732 13.2069 43.3784 12.7819 41.2818L12.7642 41.1968C12.1786 38.2722 12.2914 35.2508 13.0935 32.378C14.0214 29.1374 15.8454 26.3536 18.5335 24.342C18.746 24.1826 18.9692 24.0232 19.1923 23.8745C18.6292 18.5868 18.7708 14.2057 19.5889 10.8766C20.0387 9.04198 20.701 7.51198 21.5794 6.31844C22.5356 5.01511 23.7539 4.11552 25.1741 3.70823C26.1162 3.43906 27.0867 3.49927 27.9969 3.85698V3.86052ZM42.5744 36.0543C45.8894 36.0543 48.9494 37.1628 51.2373 39.0824C53.4685 40.9489 54.7966 43.4564 54.7966 45.9532C54.7966 49.0982 53.3587 51.5491 50.7839 53.1145C48.5881 54.4426 45.645 55.0872 42.2733 55.0872C38.6998 55.0872 35.6469 54.1699 33.4439 52.4876C31.2587 50.823 30.0333 48.4855 30.0333 45.9532C30.0333 43.4493 31.4429 40.9347 33.7733 39.0611C36.1392 37.1593 39.2629 36.0543 42.5744 36.0543ZM42.5744 39.2276C40.1173 39.2062 37.7254 40.0176 35.7885 41.5297C34.1558 42.8401 33.2314 44.487 33.2314 45.9568C33.2314 47.4726 33.9752 48.8928 35.3919 49.973C37.0033 51.202 39.3727 51.9139 42.2733 51.9139C45.1031 51.9139 47.4902 51.3932 49.1158 50.4051C50.7556 49.4134 51.595 47.9755 51.595 45.9532C51.595 44.4551 50.7237 42.8011 49.176 41.5049C47.4619 40.0705 45.1385 39.2276 42.5744 39.2276ZM44.9189 43.513L44.9331 43.5272C45.3581 44.062 45.2696 44.8376 44.7348 45.2626L43.7006 46.0772V47.6568C43.6987 48.0084 43.5575 48.3449 43.3079 48.5926C43.0582 48.8402 42.7206 48.9788 42.3689 48.9778C42.0173 48.9788 41.6797 48.8402 41.43 48.5926C41.1804 48.3449 41.0391 48.0084 41.0373 47.6568V46.0276L40.0775 45.2555C39.9509 45.1541 39.8456 45.0285 39.7678 44.8862C39.6899 44.7439 39.641 44.5875 39.6239 44.4262C39.6068 44.2648 39.6218 44.1017 39.668 43.9462C39.7142 43.7907 39.7908 43.6459 39.8933 43.5201C40.1024 43.2656 40.4034 43.1039 40.731 43.0701C41.0586 43.0363 41.3863 43.1331 41.6429 43.3395L42.4044 43.9487L43.1835 43.3324C43.4393 43.1304 43.7638 43.0362 44.088 43.0699C44.4121 43.1037 44.7103 43.2627 44.9189 43.513ZM27.0689 36.7166C28.7619 36.7166 30.1396 38.0978 30.1396 39.8014C30.1405 40.6179 29.8173 41.4015 29.2408 41.9799C28.6644 42.5583 27.882 42.8843 27.0654 42.8862C26.25 42.8833 25.469 42.5575 24.8935 41.9799C24.3179 41.4024 23.9948 40.6203 23.9948 39.8049C23.9929 38.9883 24.3152 38.2044 24.891 37.6253C25.4667 37.0462 26.2524 36.7194 27.0689 36.7166ZM57.9027 36.7166C59.6027 36.7166 60.9769 38.0978 60.9769 39.8014C60.9778 40.6179 60.6546 41.4015 60.0781 41.9799C59.5017 42.5583 58.7193 42.8843 57.9027 42.8862C57.0873 42.8833 56.3063 42.5575 55.7308 41.9799C55.1552 41.4024 54.8321 40.6203 54.8321 39.8049C54.8302 38.9883 55.1525 38.2044 55.7283 37.6253C56.304 37.0462 57.0861 36.7194 57.9027 36.7166ZM26.35 8.14594L26.3394 8.15302C25.9291 8.33144 25.5787 8.62403 25.33 8.99594L25.3123 9.01719C24.8235 9.68656 24.3985 10.6711 24.0798 11.9639C23.4777 14.4147 23.3148 17.7403 23.6406 21.8168C25.1635 21.3634 26.8246 21.0801 28.6131 20.9774L28.6485 20.9739L28.7158 20.8534C28.8787 20.563 29.0523 20.2832 29.24 20.007C29.6756 17.2764 29.3179 14.0145 28.3439 11.3511C27.8694 10.062 27.2921 9.04906 26.7396 8.47177C26.6255 8.35175 26.4984 8.24483 26.3606 8.15302L26.35 8.14594ZM58.8412 8.2876L58.8341 8.29115C58.6964 8.38296 58.5692 8.48987 58.4552 8.6099C57.9027 9.18719 57.3219 10.2036 56.8508 11.4928C55.8237 14.3049 55.4802 17.7828 56.0362 20.602L56.2416 20.9455L56.27 20.9951H56.3762C58.1339 20.9956 59.8825 21.2484 61.5683 21.7459C61.8729 17.7651 61.7029 14.5103 61.115 12.1055C60.7962 10.8128 60.3712 9.82823 59.8789 9.15885L59.8648 9.13761C59.6166 8.76438 59.2662 8.47053 58.8554 8.29115H58.8412V8.2876Z" fill="black"/><path fill-rule="evenodd" clip-rule="evenodd" d="M106.712 27.666C101.304 27.666 97.0771 29.3948 94.0287 32.9533C91.0808 36.3138 89.6553 40.6643 89.6553 46.0489C89.6553 51.3857 91.0808 55.7343 94.0305 59.0948C97.0753 62.5543 101.304 64.3327 106.712 64.3327C112.069 64.3327 116.296 62.6039 119.394 59.1444C122.343 55.8333 123.817 51.4847 123.817 46.0489C123.817 40.613 122.343 36.2148 119.394 32.9038C116.296 29.3948 112.069 27.666 106.71 27.666H106.712ZM106.712 32.7553C110.349 32.7553 113.151 33.892 115.117 36.2643C117.034 38.6367 118.018 41.8982 118.018 46.0489C118.018 50.1995 117.034 53.4115 115.117 55.7343C113.151 58.0572 110.349 59.2434 106.71 59.2434C103.073 59.2434 100.222 58.0077 98.2577 55.5858C96.3388 53.2135 95.4067 50.051 95.4067 46.0489C95.4067 41.9972 96.3388 38.8347 98.2577 36.4605C100.272 33.991 103.075 32.7553 106.712 32.7553ZM127.996 27.666V63.6415H133.6V27.666H127.996ZM139.252 27.666V63.6415H144.856V27.666H139.252ZM161.567 37.401C158.323 37.401 155.768 37.9437 153.9 39.1298C151.689 40.415 150.311 42.4903 149.77 45.3082L155.326 45.7518C155.62 44.4172 156.357 43.429 157.439 42.7873C158.373 42.1952 159.602 41.9477 161.174 41.9477C164.811 41.9477 166.631 43.5793 166.631 46.938V47.928L161.076 48.0747C157.34 48.1737 154.441 48.9638 152.376 50.447C150.115 51.9778 149.034 54.2017 149.034 57.069C149.034 59.1938 149.819 60.9227 151.391 62.3069C152.917 63.6415 154.981 64.3327 157.636 64.3327C159.847 64.3327 161.765 63.9367 163.386 63.196C164.811 62.5048 166.041 61.5644 167.022 60.281V63.6415H172.235V47.334C172.235 44.221 171.449 41.8487 169.875 40.217C168.104 38.3397 165.303 37.401 161.567 37.401ZM166.63 51.9778V53.263C166.63 55.2393 165.844 56.871 164.369 58.1562C162.896 59.3919 161.076 60.0335 158.913 60.0335C157.685 60.0335 156.702 59.687 155.916 59.0948C155.129 58.5008 154.783 57.7602 154.783 56.871C154.783 53.912 156.846 52.3372 161.015 52.141L166.63 51.9778ZM189.39 37.401C186.934 37.401 184.622 38.4882 182.509 40.712V38.0922H176.904V63.6415H182.508V48.3222C182.508 46.641 182.999 45.1597 183.982 43.9735C184.966 42.6902 186.243 42.0962 187.866 42.0962C191.207 42.0962 192.879 44.0212 192.879 47.9262V63.6415H198.483V48.0252C198.483 46.1478 198.925 44.7142 199.908 43.6765C200.842 42.5893 201.973 42.0962 203.349 42.0962C205.314 42.0962 206.692 42.5398 207.577 43.4785C208.412 44.3695 208.854 45.8508 208.854 47.8785V63.6415H214.457V46.8885C214.457 44.0725 213.573 41.7992 211.903 40.0209C210.132 38.2425 207.97 37.401 205.363 37.401C203.644 37.401 202.22 37.698 201.087 38.2902C199.809 38.8842 198.581 39.9713 197.401 41.5535C195.78 38.7852 193.126 37.401 189.39 37.401ZM230.681 37.401C227.437 37.401 224.88 37.9437 223.012 39.1298C220.801 40.415 219.425 42.4903 218.882 45.3082L224.438 45.7518C224.732 44.4172 225.471 43.429 226.551 42.7873C227.485 42.1952 228.714 41.9477 230.286 41.9477C233.923 41.9477 235.743 43.5793 235.743 46.938V47.928L230.188 48.0747C226.454 48.1737 223.553 48.9638 221.488 50.447C219.227 51.9778 218.146 54.2017 218.146 57.069C218.146 59.1938 218.931 60.9227 220.505 62.3069C222.029 63.6415 224.094 64.3327 226.748 64.3327C228.959 64.3327 230.878 63.9367 232.499 63.196C233.925 62.5048 235.153 61.5644 236.136 60.281V63.6415H241.345V47.334C241.345 44.221 240.559 41.8487 238.986 40.217C237.216 38.3397 234.417 37.401 230.681 37.401ZM235.743 51.9778V53.263C235.743 55.2393 234.958 56.871 233.483 58.1562C232.008 59.3919 230.189 60.0335 228.025 60.0335C226.797 60.0335 225.814 59.687 225.028 59.0948C224.242 58.5008 223.897 57.7602 223.897 56.871C223.897 53.912 225.958 52.3372 230.129 52.141L235.743 51.9778Z" fill="black"/></svg>